<svg width="77" height="83" viewBox="0 0 77 83" fill="none" xmlns="http://www.w3.org/2000/svg">
<path fill-rule="evenodd" clip-rule="evenodd" d="M76.3308 35.3414V0H70.4592V5.89024H64.5876V11.7805H58.716V5.89024H52.8444V0H46.9728V23.561H41.1012V17.6707H35.2296V11.7805H11.7432V17.6707H5.8716V23.561H0V70.6829H5.8716V76.5731H11.7432V82.4634H29.358V76.5731H17.6148V70.6829H11.7432V53.0122H17.6148V47.1219H41.1012V53.0122H58.716V47.1219H64.5876V53.0122H76.3308V41.2317H70.4592V35.3414H76.3308ZM58.716 23.561H52.8444V17.6707H58.716V23.561ZM64.5876 23.561V17.6707H70.4592V23.561H64.5876Z" fill="#ccc"/>
</svg>
